HIERARCHY
ROOT pelvis
{
	OFFSET 0.000000 0.000000 0.000000
	CHANNELS 6 Xposition Yposition Zposition Zrotation Yrotation Xrotation
	JOINT left_hip
	{
		OFFSET 0.055779 -0.080629 -0.017705
		CHANNELS 3 Zrotation Yrotation Xrotation
		JOINT left_knee
		{
			OFFSET 0.039469 -0.359247 0.009008
			CHANNELS 3 Zrotation Yrotation Xrotation
			JOINT left_ankle
			{
				OFFSET -0.013809 -0.389899 -0.036404
				CHANNELS 3 Zrotation Yrotation Xrotation
				JOINT left_foot
				{
					OFFSET 0.037897 -0.056346 0.116500
					CHANNELS 3 Zrotation Yrotation Xrotation
					End Site
					{
						OFFSET 0.000000 0.000000 0.000000
					}
				}
			}
		}
	}
	JOINT right_hip
	{
		OFFSET -0.057787 -0.088871 -0.013401
		CHANNELS 3 Zrotation Yrotation Xrotation
		JOINT right_knee
		{
			OFFSET -0.039496 -0.356943 -0.002206
			CHANNELS 3 Zrotation Yrotation Xrotation
			JOINT right_ankle
			{
				OFFSET 0.017959 -0.383749 -0.033094
				CHANNELS 3 Zrotation Yrotation Xrotation
				JOINT right_foot
				{
					OFFSET -0.031235 -0.058281 0.124713
					CHANNELS 3 Zrotation Yrotation Xrotation
					End Site
					{
						OFFSET 0.000000 0.000000 0.000000
					}
				}
			}
		}
	}
	JOINT spine1
	{
		OFFSET 0.004196 0.122659 -0.034271
		CHANNELS 3 Zrotation Yrotation Xrotation
		JOINT spine2
		{
			OFFSET 0.005122 0.143143 0.029537
			CHANNELS 3 Zrotation Yrotation Xrotation
			JOINT spine3
			{
				OFFSET -0.001923 0.057757 0.004628
				CHANNELS 3 Zrotation Yrotation Xrotation
				JOINT neck
				{
					OFFSET -0.013781 0.203940 -0.035143
					CHANNELS 3 Zrotation Yrotation Xrotation
					JOINT head
					{
						OFFSET 0.009065 0.086539 0.049216
						CHANNELS 3 Zrotation Yrotation Xrotation
						End Site
						{
							OFFSET 0.000000 0.000000 0.000000
						}
					}
				}
				JOINT left_collar
				{
					OFFSET 0.070315 0.109742 -0.020357
					CHANNELS 3 Zrotation Yrotation Xrotation
					JOINT left_shoulder
					{
						OFFSET 0.122280 0.043464 -0.020451
						CHANNELS 3 Zrotation Yrotation Xrotation
						JOINT left_elbow
						{
							OFFSET 0.245347 -0.013316 -0.020298
							CHANNELS 3 Zrotation Yrotation Xrotation
							JOINT left_wrist
							{
								OFFSET 0.251466 0.010925 -0.008411
								CHANNELS 3 Zrotation Yrotation Xrotation
								End Site
								{
									OFFSET 0.000000 0.000000 0.000000
								}
							}
						}
					}
				}
				JOINT right_collar
				{
					OFFSET -0.083386 0.108780 -0.024575
					CHANNELS 3 Zrotation Yrotation Xrotation
					JOINT right_shoulder
					{
						OFFSET -0.112806 0.044731 -0.008805
						CHANNELS 3 Zrotation Yrotation Xrotation
						JOINT right_elbow
						{
							OFFSET -0.248827 -0.010357 -0.028458
							CHANNELS 3 Zrotation Yrotation Xrotation
							JOINT right_wrist
							{
								OFFSET -0.255561 0.006434 -0.006231
								CHANNELS 3 Zrotation Yrotation Xrotation
								End Site
								{
									OFFSET 0.000000 0.000000 0.000000
								}
							}
						}
					}
				}
			}
		}
	}
}
MOTION
Frames: 14
Frame Time: 0.033333
-0.015328 0.562565 -1.996420 0.000000 0.000000 0.000000 -1.810185 0.171666 -6.943011 -0.014785 -0.091242 7.012629 0.488395 -0.053917 -0.074349 0.000000 0.000000 0.000000 -0.871321 -0.002592 -1.924090 -0.006168 -0.072294 -2.078622 -0.442376 0.131041 3.997940 0.000000 0.000000 0.000000 -1.744257 -0.047627 -0.003245 0.000000 0.000000 0.000000 -0.481540 -0.083391 0.001210 0.000000 0.000000 0.000000 0.000000 0.000000 0.000000 0.000000 0.000000 0.000000 0.000000 0.000000 0.000000 0.000000 0.000000 0.000000 0.000000 0.000000 0.000000 0.000000 0.000000 0.000000 0.000000 0.000000 0.000000 0.000000 0.000000 0.000000 0.000000 0.000000 0.000000
-0.068397 0.532655 -2.038260 -19.290100 -28.050800 11.937200 21.164361 33.323439 -76.070293 0.282357 -0.870099 77.719413 -1.217860 -7.068626 1.394844 0.000000 0.000000 0.000000 -11.824273 -2.838330 11.689242 1.504928 2.133793 34.170866 2.161400 -29.099205 -20.525163 0.000000 0.000000 0.000000 14.103839 3.488334 9.277170 0.000000 0.000000 0.000000 1.988958 1.071311 -7.169030 1.443599 7.165996 13.230701 -0.245669 14.494517 -24.036183 0.000000 0.000000 0.000000 -57.343208 -38.636710 15.493582 13.809322 -21.065099 -5.666280 -2.213586 -5.533673 43.578956 0.000000 0.000000 0.000000 60.000182 -32.876021 62.246619 -118.450299 46.250251 -90.975498 2.227606 -5.548309 -43.724287
-0.069465 0.532514 -2.036882 -19.377700 -28.029500 12.013200 21.305681 33.270285 -76.137382 0.271213 -0.874977 77.898019 -1.179687 -6.801285 1.307654 0.000000 0.000000 0.000000 -11.692878 -2.757709 11.941433 1.490137 2.133685 33.842432 2.170674 -29.056599 -20.482112 0.000000 0.000000 0.000000 14.251509 3.465530 9.209287 0.000000 0.000000 0.000000 1.994247 1.066946 -7.105048 1.454245 7.140297 13.257467 -0.255292 14.441850 -24.090697 0.000000 0.000000 0.000000 -57.288185 -38.793895 15.199820 13.680447 -20.898851 -5.595135 -2.226130 -5.546770 43.709009 0.000000 0.000000 0.000000 60.232610 -32.912037 62.136596 -118.359361 46.288230 -90.900824 2.215106 -5.535262 -43.594740
-0.069989 0.532447 -2.035787 -19.416500 -28.104700 12.098800 21.363471 33.294765 -76.169880 0.258267 -0.879169 78.041103 -1.141069 -6.531279 1.253879 0.000000 0.000000 0.000000 -11.702383 -2.752810 12.067735 1.476076 2.131225 33.573502 2.178448 -28.986053 -20.460180 0.000000 0.000000 0.000000 14.361524 3.483282 9.131353 0.000000 0.000000 0.000000 1.998066 1.072315 -7.078866 1.466799 7.125600 13.362695 -0.263109 14.411915 -24.093176 0.000000 0.000000 0.000000 -57.281458 -38.878980 14.859287 13.456185 -20.607830 -5.472174 -2.292536 -5.615100 44.391734 0.000000 0.000000 0.000000 60.316989 -32.893610 62.100916 -118.349465 46.292352 -90.892791 2.181492 -5.499918 -43.245186
-0.069964 0.532304 -2.035056 -19.392100 -28.279700 12.203600 21.363128 33.353640 -76.164980 0.241600 -0.882740 78.140137 -1.113135 -6.255973 1.157816 0.000000 0.000000 0.000000 -11.864272 -2.739942 11.996418 1.467329 2.128642 33.449215 2.188899 -28.779332 -20.546588 0.000000 0.000000 0.000000 14.469213 3.615047 9.081132 0.000000 0.000000 0.000000 1.904274 1.105196 -7.023683 1.544001 7.093095 13.359716 -0.321883 14.328923 -24.064771 0.000000 0.000000 0.000000 -57.303068 -38.976385 14.656819 13.333195 -20.447581 -5.405071 -2.315690 -5.638539 44.627905 0.000000 0.000000 0.000000 60.429791 -32.901817 61.944154 -118.391271 46.275627 -90.927099 2.187064 -5.505814 -43.303319
-0.069376 0.532033 -2.034712 -19.304200 -28.460100 12.321700 21.267014 33.413228 -76.223451 0.227859 -0.886211 78.214502 -1.107022 -6.089836 1.075249 0.000000 0.000000 0.000000 -12.120137 -2.748051 11.799564 1.467439 2.128180 33.446601 2.197883 -28.592123 -20.638757 0.000000 0.000000 0.000000 14.505894 3.559177 8.999311 0.000000 0.000000 0.000000 1.896074 1.084744 -6.940890 1.560595 7.136697 13.417571 -0.414687 14.401689 -24.200664 0.000000 0.000000 0.000000 -57.211563 -38.921750 14.472844 13.264135 -20.357244 -5.367540 -2.315084 -5.637911 44.621685 0.000000 0.000000 0.000000 60.243739 -32.807859 62.161788 -118.342194 46.295443 -90.886712 2.188605 -5.507447 -43.319405
-0.068574 0.531625 -2.034670 -19.183600 -28.620800 12.458400 21.049240 33.536310 -76.387464 0.221303 -0.887092 78.261402 -1.112835 -6.063757 0.981350 0.000000 0.000000 0.000000 -12.395097 -2.785881 11.595694 1.466044 2.129549 33.377366 2.206304 -28.459701 -20.716141 0.000000 0.000000 0.000000 14.488579 3.369976 8.858051 0.000000 0.000000 0.000000 1.954652 1.027495 -6.904636 1.511101 7.186595 13.569113 -0.458756 14.503754 -24.339931 0.000000 0.000000 0.000000 -57.051123 -38.722726 14.118909 13.173960 -20.238929 -5.318600 -2.366013 -5.688812 45.137745 0.000000 0.000000 0.000000 59.934938 -32.762046 62.595293 -118.303853 46.309987 -90.856377 2.194811 -5.513968 -43.383955
-0.068086 0.531318 -2.034399 -19.245200 -28.893000 12.571600 21.038157 33.862436 -76.390781 0.218090 -0.889437 78.344820 -1.118595 -6.124665 0.827984 0.000000 0.000000 0.000000 -12.602875 -2.785743 11.554342 1.457216 2.129987 33.169571 2.221790 -28.336755 -20.561640 0.000000 0.000000 0.000000 14.664553 3.323517 8.863127 0.000000 0.000000 0.000000 1.937586 1.017022 -6.872068 1.501303 7.179904 13.641310 -0.507727 14.486601 -24.426383 0.000000 0.000000 0.000000 -56.994017 -38.562766 13.685382 13.110268 -20.155244 -5.284071 -2.390480 -5.712939 45.384092 0.000000 0.000000 0.000000 59.831316 -32.859990 62.724148 -118.313784 46.307284 -90.863521 2.210401 -5.530341 -43.545961
-0.067516 0.531002 -2.034513 -19.329200 -29.042400 12.678500 21.066806 34.045596 -76.431128 0.213413 -0.890396 78.397749 -1.119922 -6.106526 0.760474 0.000000 0.000000 0.000000 -12.781641 -2.935877 11.455238 1.455651 2.131721 33.100145 2.232153 -28.215884 -20.359920 0.000000 0.000000 0.000000 14.833146 3.202041 8.934833 0.000000 0.000000 0.000000 1.907332 0.986368 -6.895457 1.558895 7.175565 13.662655 -0.572049 14.457863 -24.469680 0.000000 0.000000 0.000000 -56.927802 -38.455165 13.307429 13.052270 -20.078290 -5.257411 -2.373491 -5.696218 45.213223 0.000000 0.000000 0.000000 59.914434 -32.961039 62.581085 -118.210378 46.350255 -90.778520 2.195276 -5.514464 -43.388842
-0.066842 0.530438 -2.034722 -19.284800 -29.210700 12.711800 21.111302 34.096907 -76.371156 0.202444 -0.893342 78.462266 -1.135889 -6.061607 0.646282 0.000000 0.000000 0.000000 -13.017944 -2.963586 11.315733 1.462637 2.138117 33.143543 2.233541 -28.379974 -20.075638 0.000000 0.000000 0.000000 14.830605 3.089392 8.993519 0.000000 0.000000 0.000000 1.842645 0.952104 -6.877664 1.653000 7.173606 13.637891 -0.629702 14.442556 -24.487320 0.000000 0.000000 0.000000 -56.719531 -38.380699 13.276320 13.048571 -20.073809 -5.253905 -2.390895 -5.713349 45.388275 0.000000 0.000000 0.000000 60.159633 -33.030759 62.357210 -118.057377 46.413661 -90.652781 2.186517 -5.505241 -43.297618
-0.065975 0.529411 -2.034941 -19.111300 -29.383100 12.753900 21.076460 34.111289 -76.392781 0.195022 -0.894415 78.513002 -1.150702 -5.921027 0.399693 0.000000 0.000000 0.000000 -13.248514 -2.834705 10.907310 1.494078 2.153877 33.551041 2.234933 -28.711577 -20.037841 0.000000 0.000000 0.000000 14.602412 3.008778 9.048278 0.000000 0.000000 0.000000 1.900132 0.927953 -6.892588 1.674905 7.180498 13.582641 -0.810713 14.412470 -24.522034 0.000000 0.000000 0.000000 -56.551526 -38.286807 13.092618 13.068417 -20.100068 -5.262512 -2.427220 -5.748784 45.752048 0.000000 0.000000 0.000000 60.246676 -33.065489 62.203338 -117.932470 46.464990 -90.550161 2.212750 -5.532812 -43.570301
-0.064906 0.528048 -2.034806 -18.913600 -29.531700 12.798200 20.994401 34.153830 -76.507544 0.188162 -0.896579 78.578470 -1.083673 -5.216100 -0.298168 0.000000 0.000000 0.000000 -13.560505 -2.782541 10.408508 1.542063 2.179837 34.108075 2.272770 -28.619316 -20.553480 0.000000 0.000000 0.000000 14.438215 2.871674 9.139896 0.000000 0.000000 0.000000 1.922520 0.888605 -6.919176 1.620397 7.230304 13.561270 -1.070162 14.464499 -24.682092 0.000000 0.000000 0.000000 -56.362425 -38.129571 12.672470 13.134624 -20.187244 -5.297247 -2.400524 -5.722785 45.484894 0.000000 0.000000 0.000000 60.198627 -32.823824 61.832360 -117.312887 46.716187 -90.040029 2.195884 -5.515116 -43.395156
-0.063820 0.527020 -2.034284 -18.801700 -29.519600 12.880000 20.844780 34.196087 -76.810957 0.181413 -0.898435 78.657362 -0.956199 -4.202805 -1.073748 0.000000 0.000000 0.000000 -13.758669 -2.856305 10.156552 1.581568 2.210265 34.345222 2.313025 -28.606226 -20.737380 0.000000 0.000000 0.000000 14.455532 2.757707 9.377398 0.000000 0.000000 0.000000 1.818902 0.858680 -7.046605 1.553600 7.252348 13.532093 -1.302507 14.466402 -24.853016 0.000000 0.000000 0.000000 -56.215242 -38.045500 12.187561 13.226418 -20.307836 -5.347044 -2.363916 -5.686746 45.116734 0.000000 0.000000 0.000000 60.197347 -32.063852 60.724360 -115.688241 47.345542 -88.696542 2.074655 -5.384596 -42.118793
-0.062495 0.526297 -2.032958 -18.549000 -29.672700 12.878900 20.396723 34.349993 -77.087610 0.160023 -0.902960 78.794358 -0.758511 -2.741576 -1.677841 0.000000 0.000000 0.000000 -14.072753 -2.654620 10.074324 1.598130 2.235780 34.267512 2.331714 -28.862174 -20.476425 0.000000 0.000000 0.000000 14.281032 2.828193 9.859589 0.000000 0.000000 0.000000 1.618096 0.880695 -7.142448 1.423201 7.242204 13.391097 -1.393235 14.436828 -25.173936 0.000000 0.000000 0.000000 -55.931598 -38.099509 11.258247 13.248406 -20.336612 -5.357794 -2.305754 -5.628490 44.526681 0.000000 0.000000 0.000000 60.354817 -30.003526 58.617326 -112.018667 48.619661 -85.633677 1.929534 -5.220294 -40.548412
